<?xml version="1.0" encoding="UTF-8"?>
<svg xmlns="http://www.w3.org/2000/svg" viewBox="0 0 204.09 119.06">
  <defs>
    <style>
      .cls-1 {
        fill: #fff;
      }

      .cls-2 {
        fill: #6c9e90;
      }
    </style>
  </defs>
  <g id="_4" data-name="4">
    <rect class="cls-2" x="0" width="204.09" height="119.06" rx="25.37" ry="25.37"/>
  </g>
  <g id="opción_1" data-name="opción 1">
    <g>
      <path class="cls-1" d="M147.57,78.1l9.67-16.74V17.01h-2.11c-3.02,0-5.82,1.61-7.33,4.23l-16.53,28.63,16.3,28.23Z"/>
      <path class="cls-1" d="M103.98,17.01h-24.29l33.69,58.38c1.51,2.61,4.3,4.22,7.32,4.22h24.27l-33.72-58.4c-1.5-2.6-4.27-4.2-7.27-4.2Z"/>
      <path class="cls-1" d="M160.24,17.01v85.04h18.39c4.67,0,8.46-3.79,8.46-8.46V25.56c0-4.72-3.83-8.55-8.55-8.55h-18.3Z"/>
      <path class="cls-1" d="M76.23,17.01H25.65c-4.77,0-8.64,3.87-8.64,8.64v67.75c0,4.77,3.87,8.64,8.64,8.64h67.75c4.77,0,8.64-3.87,8.64-8.64v-31.66l-25.82-44.74Z"/>
    </g>
    <path class="cls-2" d="M93.55,69.53h0c0,13.26-10.75,24.01-24.01,24.01h-27.02c-9.39,0-17-7.61-17-17h0s44.02,0,44.02,0c3.87,0,7-3.14,7-7h0c0-3.87-3.14-7-7-7h-27.01c-9.39,0-17.01-7.62-17.01-17.01h0s44.02,0,44.02,0c13.26,0,24.01,10.75,24.01,24.01Z"/>
    <path class="cls-2" d="M80.56,42.51H25.72c-.12,0-.21-.09-.21-.2v-15.06c0-.96.78-1.74,1.74-1.74h43.76c.08,0,.15.04.18.11l9.56,16.57c.08.14-.02.32-.18.32Z"/>
  </g>
</svg>