<?xml version="1.0" encoding="UTF-8"?>
<svg id="opción_1" data-name="opción 1" xmlns="http://www.w3.org/2000/svg" viewBox="0 0 204.09 119.06">
  <defs>
    <style>
      .cls-1 {
        fill: #6c9e90;
      }
    </style>
  </defs>
  <path class="cls-1" d="M178.72,0H25.37C11.36,0,0,11.36,0,25.37v68.31C0,107.7,11.36,119.06,25.37,119.06h153.35c14.01,0,25.37-11.36,25.37-25.37V25.37C204.09,11.36,192.73,0,178.72,0ZM102.05,93.41c0,4.77-3.87,8.64-8.64,8.64H25.65c-4.77,0-8.64-3.87-8.64-8.64V25.65c0-4.77,3.87-8.64,8.64-8.64h50.58l25.82,44.74v31.66ZM120.7,79.61c-3.02,0-5.81-1.61-7.32-4.22l-33.69-58.38h24.29c3,0,5.77,1.6,7.27,4.2l33.72,58.4h-24.27ZM157.24,61.36l-9.67,16.74-16.3-28.23,16.53-28.63c1.51-2.62,4.3-4.23,7.33-4.23h2.11v44.36ZM187.09,93.59c0,4.67-3.79,8.46-8.46,8.46h-18.39V17.01h18.3c4.72,0,8.55,3.83,8.55,8.55v68.03Z"/>
  <path class="cls-1" d="M93.55,69.53h0c0,13.26-10.75,24.01-24.01,24.01h-27.02c-9.39,0-17-7.61-17-17h0s44.02,0,44.02,0c3.87,0,7-3.14,7-7h0c0-3.87-3.14-7-7-7h-27.01c-9.39,0-17.01-7.62-17.01-17.01h0s44.02,0,44.02,0c13.26,0,24.01,10.75,24.01,24.01Z"/>
  <path class="cls-1" d="M80.56,42.51H25.72c-.12,0-.21-.09-.21-.2v-15.06c0-.96.78-1.74,1.74-1.74h43.76c.08,0,.15.04.18.11l9.56,16.57c.08.14-.02.32-.18.32Z"/>
</svg>